<?xml version="1.0" encoding="utf-8"?>
<!-- Generator: Adobe Illustrator 19.0.0, SVG Export Plug-In . SVG Version: 6.00 Build 0)  -->
<svg version="1.1" id="Camada_1" xmlns="http://www.w3.org/2000/svg" xmlns:xlink="http://www.w3.org/1999/xlink" x="0px" y="0px"
	 viewBox="177 -139.9 308.4 278.2" style="enable-background:new 177 -139.9 308.4 278.2;" xml:space="preserve">
<g>
	<path d="M478.7-27.2c-2.8-0.9-6.7-2.1-10.5-3.2c-1.7-0.5-1.9-2.5-1.9-5.1c0-2.7,0.2-4.6,1.9-5.1c3.8-1.1,7.7-2.3,10.5-3.2
		c2.1-0.7,2.5-2.1,2.1-4.8c-0.4-2.8-1.1-4-3.3-4.1c-3-0.1-7-0.3-11-0.4c-1.7-0.1-2.5-1.9-3.2-4.5s-1-4.5,0.5-5.4
		c3.4-2.1,6.8-4.2,9.3-5.8c1.9-1.2,1.9-2.6,0.8-5.2c-1.1-2.6-2.1-3.6-4.2-3.1c-2.9,0.6-6.9,1.6-10.7,2.5c-1.7,0.4-2.9-1.2-4.2-3.5
		c-1.3-2.3-2.1-4.1-0.9-5.4c2.7-2.9,5.5-5.9,7.5-8.1c1.5-1.6,1.1-3-0.6-5.2c-1.7-2.2-3-2.9-4.9-1.9c-2.6,1.4-6.2,3.3-9.7,5.2
		c-1.5,0.8-3.1-0.4-5-2.3c-1.9-1.9-3.1-3.4-2.3-5c1.9-3.5,3.8-7.1,5.2-9.7c1-2,0.3-3.2-1.9-4.9c-2.2-1.7-3.6-2.1-5.2-0.6
		c-2.2,2-5.2,4.8-8.1,7.5c-1.3,1.2-3.1,0.4-5.4-0.9s-3.9-2.5-3.5-4.2c0.9-3.8,1.8-7.8,2.5-10.7c0.5-2.2-0.5-3.2-3.1-4.2
		c-2.6-1.1-4-1.1-5.2,0.8c-1.6,2.5-3.8,6-5.8,9.3c-0.9,1.5-2.9,1.2-5.4,0.5c-2.6-0.7-4.4-1.4-4.5-3.2c-0.1-4-0.3-8-0.4-11
		c-0.1-2.2-1.4-2.9-4.1-3.3c-2.8-0.4-4.2,0-4.8,2.1c-0.9,2.8-2.1,6.7-3.2,10.5c-0.5,1.7-2.5,1.9-5.1,1.9c-2.7,0-4.6-0.2-5.1-1.9
		c-1.1-3.8-2.3-7.7-3.2-10.5c-0.7-2.1-2.1-2.5-4.8-2.1c-2.8,0.4-4,1.1-4.1,3.3c-0.1,3-0.3,7-0.4,11c-0.1,1.7-1.9,2.5-4.5,3.2
		c-2.6,0.7-4.5,1-5.4-0.5c-2.1-3.4-4.2-6.8-5.8-9.3c-1.2-1.9-2.6-1.9-5.2-0.8c-2.6,1.1-3.6,2.1-3.1,4.2c0.6,2.9,1.6,6.9,2.5,10.7
		c0.4,1.7-1.2,2.9-3.5,4.2c-2.3,1.3-4.1,2.1-5.4,0.9c-2.9-2.7-5.9-5.5-8.1-7.5c-1.6-1.5-3-1.1-5.2,0.6c-2.2,1.7-2.9,3-1.9,4.9
		c1.4,2.6,3.3,6.2,5.2,9.7c0.8,1.5-0.4,3.1-2.3,5s-3.4,3.1-5,2.3c-3.5-1.9-7.1-3.8-9.7-5.2c-2-1-3.2-0.3-4.9,1.9
		c-1.7,2.2-2.1,3.6-0.6,5.2c2,2.2,4.8,5.2,7.5,8.1c1.2,1.3,0.4,3.1-0.9,5.4c-1.3,2.3-2.5,3.9-4.2,3.5c-3.8-0.9-7.8-1.8-10.7-2.5
		c-2.2-0.5-3.2,0.5-4.2,3.1c-1.1,2.6-1.1,4,0.8,5.2c2.5,1.6,6,3.8,9.3,5.8c1.5,0.9,1.2,2.9,0.5,5.4c-0.7,2.6-1.4,4.4-3.2,4.5
		c-4,0.1-8,0.3-11,0.4c-2.2,0.1-2.9,1.4-3.3,4.1c-0.4,2.8,0,4.2,2.1,4.8c2.8,0.9,6.7,2.1,10.5,3.2c1.7,0.5,1.9,2.5,1.9,5.1
		s-0.2,4.6-1.9,5.1c-3.8,1.1-7.7,2.3-10.5,3.2c-2.1,0.7-2.5,2.1-2.1,4.8c0.4,2.8,1.1,4,3.3,4.1c3,0.1,7,0.3,11,0.4
		c1.7,0.1,2.5,1.9,3.2,4.5c0.7,2.6,1,4.5-0.5,5.4c-3.4,2.1-6.8,4.2-9.3,5.8c-1.9,1.2-1.9,2.6-0.8,5.2c1.1,2.6,2.1,3.6,4.3,3.1l0,0
		c2.9-0.6,6.9-1.6,10.7-2.5c1.7-0.4,2.9,1.2,4.2,3.5c1.3,2.3,2.1,4.1,0.9,5.4c-2.7,2.9-5.5,5.9-7.5,8.1c-1.5,1.6-1.1,3,0.6,5.2
		c1.7,2.2,3,2.9,4.9,1.9c2.6-1.4,6.2-3.3,9.7-5.2c1.5-0.8,3.1,0.4,5,2.3c1.9,1.9,3.1,3.4,2.3,5c-1.9,3.5-3.8,7.1-5.2,9.7
		c-1,2-0.3,3.2,1.9,4.9c2.2,1.7,3.6,2.1,5.2,0.6c2.2-2,5.2-4.8,8.1-7.5c1.3-1.2,3.1-0.4,5.4,0.9c2.3,1.3,3.9,2.5,3.5,4.2
		c-0.9,3.8-1.8,7.8-2.5,10.7c-0.5,2.2,0.5,3.2,3.1,4.2c2.6,1.1,4,1.1,5.2-0.8c1.6-2.5,3.8-6,5.8-9.3c0.9-1.5,2.9-1.2,5.4-0.5
		c2.6,0.7,4.4,1.4,4.5,3.2c0.1,4,0.3,8,0.4,11c0.1,2.2,1.4,2.9,4.1,3.3c2.8,0.4,4.2,0,4.8-2.1c0.9-2.8,2.1-6.7,3.2-10.5
		c0.5-1.7,2.5-1.9,5.1-1.9c2.7,0,4.6,0.2,5.1,1.9c1.1,3.8,2.3,7.7,3.2,10.5c0.7,2.1,2.1,2.5,4.8,2.1c2.8-0.4,4-1.1,4.1-3.3
		c0.1-3,0.3-7,0.4-11c0.1-1.7,1.9-2.5,4.5-3.2c2.6-0.7,4.5-1,5.4,0.5c2.1,3.4,4.2,6.8,5.8,9.3c1.2,1.9,2.6,1.9,5.2,0.8
		c2.6-1.1,3.6-2.1,3.1-4.2c-0.6-2.9-1.6-6.9-2.5-10.7c-0.4-1.7,1.2-2.9,3.5-4.2c2.3-1.3,4.1-2.1,5.4-0.9c2.9,2.7,5.9,5.5,8.1,7.5
		c1.6,1.5,3,1.1,5.2-0.6c2.2-1.7,2.9-3,1.9-4.9c-1.4-2.6-3.3-6.2-5.2-9.7c-0.8-1.5,0.4-3.1,2.3-5c1.9-1.9,3.4-3.1,5-2.3
		c3.5,1.9,7.1,3.8,9.7,5.2c2,1,3.2,0.3,4.9-1.9c1.7-2.2,2.1-3.6,0.6-5.2c-2-2.2-4.8-5.2-7.5-8.1c-1.2-1.3-0.4-3.1,0.9-5.4
		c1.3-2.3,2.5-3.9,4.2-3.5c3.8,0.9,7.8,1.8,10.7,2.5c2.2,0.5,3.2-0.5,4.2-3.1c1.1-2.6,1.1-4-0.8-5.2c-2.5-1.6-6-3.8-9.3-5.8
		c-1.5-0.9-1.2-2.9-0.5-5.4c0.7-2.6,1.4-4.4,3.2-4.5c4-0.1,8-0.3,11-0.4c2.2-0.1,2.9-1.4,3.3-4.1C481.2-25.2,480.8-26.6,478.7-27.2z
		 M380.7,37.8c-40.5,0-73.4-32.9-73.4-73.4c0-40.5,32.9-73.4,73.4-73.4c40.5,0,73.4,32.9,73.4,73.4C454,5,421.2,37.8,380.7,37.8z"/>
	<path d="M380.7-98.4c-34.7,0-62.8,28.1-62.8,62.8c0,34.7,28.1,62.8,62.8,62.8c34.7,0,62.8-28.1,62.8-62.8S415.3-98.4,380.7-98.4z
		 M380.7-9.3c-14.5,0-26.3-11.8-26.3-26.3s11.8-26.3,26.3-26.3s26.3,11.8,26.3,26.3S395.2-9.3,380.7-9.3z"/>
	<path d="M325.2,57.6c-0.1-2.6-0.8-4-2.8-4.3c-3.3-0.4-6.6-1-10.7-1.5c-2.5-0.3-3.4-0.9-4.3-3.9c-0.8-3-0.3-4,1.7-5.6
		c3.3-2.6,5.8-4.7,8.5-6.7c1.6-1.3,1.4-3,0.3-5.1c-1.2-2.3-2.3-3.4-4.3-2.9c-3.3,0.9-6.4,1.6-10.5,2.7c-2.4,0.7-3.5,0.5-5.4-2
		c-1.9-2.5-1.8-3.6-0.6-5.8c2.1-3.6,3.6-6.5,5.3-9.5c1-1.8,0.3-3.1-1.7-4.9c-2-1.8-3.4-2.3-5-1c-2.7,2.1-5.3,4-8.7,6.5
		c-2,1.5-3.1,1.8-5.8,0.2c-2.7-1.6-3.1-2.7-2.7-5.1c0.5-4.2,0.8-7.4,1.3-10.8c0.3-2.1-0.9-3-3.4-3.8c-2.5-0.9-4-0.8-5,1
		c-1.7,2.9-3.4,5.7-5.5,9.3c-1.2,2.2-2.2,2.8-5.3,2.4c-3.1-0.4-3.8-1.3-4.5-3.7c-1.1-4.1-2.1-7.2-3-10.4c-0.5-2-2-2.4-4.6-2.2
		c-2.6,0.1-4,0.8-4.3,2.8c-0.4,3.3-1,6.6-1.5,10.7c-0.3,2.5-0.9,3.4-3.9,4.3c-3,0.8-4,0.3-5.6-1.7c-2.6-3.3-4.7-5.8-6.7-8.5
		c-1.3-1.7-3-1.4-5.1-0.3c-2.3,1.2-3.4,2.3-2.9,4.3c0.9,3.3,1.6,6.4,2.7,10.5c0.7,2.4,0.5,3.5-2,5.4c-2.5,1.9-3.6,1.8-5.8,0.6
		c-3.6-2.1-6.5-3.6-9.5-5.3c-1.8-1-3.1-0.3-4.9,1.7c-1.8,2-2.3,3.4-1,5c2.1,2.7,4,5.3,6.5,8.6c1.5,2,1.8,3.1,0.2,5.8
		s-2.7,3.1-5.1,2.7c-4.2-0.5-7.4-0.8-10.8-1.3c-2.1-0.3-3,0.9-3.8,3.4c-0.8,2.5-0.8,4,1,5c2.9,1.7,5.7,3.4,9.3,5.5
		c2.2,1.2,2.8,2.2,2.4,5.3c-0.4,3.1-1.3,3.8-3.7,4.5c-4.1,1.1-7.2,2.1-10.4,3c-2,0.5-2.4,2-2.2,4.6c0.1,2.6,0.8,4,2.8,4.3
		c3.3,0.4,6.6,1,10.7,1.5c2.5,0.3,3.4,0.9,4.3,3.9c0.8,3,0.3,4-1.7,5.6c-3.3,2.6-5.8,4.7-8.5,6.7c-1.6,1.3-1.4,3-0.3,5.1
		c1.2,2.3,2.3,3.4,4.3,2.9c3.3-0.9,6.4-1.6,10.5-2.7c2.4-0.7,3.5-0.5,5.4,2c1.9,2.5,1.8,3.6,0.6,5.8c-2.1,3.6-3.6,6.5-5.3,9.5
		c-1,1.8-0.3,3.1,1.7,4.9c2,1.8,3.4,2.3,5,1c2.7-2.1,5.3-4,8.7-6.5c2-1.5,3.1-1.8,5.8-0.2c2.7,1.6,3.1,2.6,2.7,5.1
		c-0.5,4.2-0.8,7.4-1.3,10.8c-0.3,2.1,0.9,3,3.4,3.8c2.5,0.9,4,0.8,5-1c1.7-2.9,3.4-5.7,5.5-9.3c1.2-2.2,2.2-2.8,5.3-2.4
		c3.1,0.4,3.8,1.3,4.5,3.7c1.1,4.1,2.1,7.2,3,10.4c0.5,2,2,2.4,4.6,2.2c2.6-0.1,4-0.8,4.3-2.8c0.4-3.3,1-6.6,1.5-10.7
		c0.3-2.5,0.9-3.4,3.9-4.3c3-0.8,4-0.3,5.6,1.7c2.6,3.3,4.7,5.8,6.7,8.5c1.3,1.7,3,1.4,5.1,0.3c2.3-1.2,3.4-2.3,2.9-4.3
		c-0.9-3.3-1.6-6.4-2.7-10.5c-0.7-2.4-0.5-3.5,2-5.4c2.5-1.9,3.6-1.8,5.8-0.6c3.6,2.1,6.5,3.6,9.5,5.3c1.8,1,3.1,0.3,4.9-1.7
		c1.8-2,2.3-3.4,1-5c-2.1-2.7-4-5.3-6.5-8.7c-1.5-2-1.8-3.1-0.2-5.8c1.6-2.7,2.7-3.1,5.1-2.7c4.2,0.5,7.4,0.8,10.8,1.3
		c2.1,0.3,3-0.9,3.8-3.4c0.8-2.5,0.8-4-1-5c-2.9-1.7-5.7-3.4-9.3-5.5c-2.2-1.2-2.8-2.2-2.4-5.3c0.4-3.1,1.3-3.8,3.7-4.5
		c4.1-1.1,7.2-2.1,10.4-3C324.9,61.6,325.3,60.2,325.2,57.6L325.2,57.6z M253.3,80.6c-10,0-18.1-8.1-18.1-18.1
		c0-10,8.1-18.1,18.1-18.1s18.1,8.1,18.1,18.1C271.4,72.5,263.3,80.6,253.3,80.6z"/>
</g>
</svg>
