<?xml version="1.0" encoding="utf-8"?>
<!-- Generator: Adobe Illustrator 19.0.0, SVG Export Plug-In . SVG Version: 6.00 Build 0)  -->
<svg version="1.1" id="Camada_1" xmlns="http://www.w3.org/2000/svg" xmlns:xlink="http://www.w3.org/1999/xlink" x="0px" y="0px"
	 viewBox="-128 114.7 242 273.3" style="enable-background:new -128 114.7 242 273.3;" xml:space="preserve">
<path d="M106.5,247.3v119.6c0,8.6-7,15.6-15.5,15.6h-195.9c-8.5,0-15.5-7-15.5-15.5V247.3c0-2.5,0.6-4.8,1.6-6.9
	c0.4,1,1.2,2,2.2,2.7c35.9,24.1,71.8,48.1,107.6,72.1c1.6,1.1,4.3,1.1,5.9,0c35.2-24.2,70.5-48.5,105.7-72.7
	c0.1-0.1,0.2-0.2,0.3-0.2c0,0,0,0,0,0c0.1-0.1,0.2-0.1,0.3-0.2c0.3-0.3,0.6-0.5,0.8-0.8c0.1-0.1,0.1-0.2,0.2-0.3c0,0,0,0,0-0.1
	c0-0.1,0.1-0.2,0.1-0.2c0,0,0-0.1,0-0.1c0-0.1,0.1-0.2,0.1-0.3c0,0,0,0,0,0C105.8,242.2,106.5,244.7,106.5,247.3z"/>
<g id="XMLID_5_">
	<path d="M0.9,166.3l-0.8,3.5c-1.4-1.8-3.2-3.1-5.4-4c-0.1-0.1-0.3-0.1-0.4-0.2c-2.2-0.8-4.8-1.3-7.8-1.3c-0.1,0-0.2,0-0.3,0
		c1.9-1.3,3.8-2.6,5.7-3.9C-5,162.3-2.1,164.3,0.9,166.3z"/>
	<path d="M7.5,170.7 M20.8,179.9c0-0.1,0-0.2,0-0.4 M-45.7,190.6L-45.7,190.6z M-88,227.9c0-1.7,0-3.5,0-5.2c0-2.4,0-4.9,0-7.3
		c-6.1,4.2-12.1,8.4-18.2,12.6c-2.9,2-5.8,4-8.7,6c3.5,0,7.1,0,10.6,0c5.5,0,10.9,0,16.4-0.1C-88,231.9-88,229.9-88,227.9z
		 M99.5,232.3c-2.5-1.7-5-3.3-7.5-5c-8.4-5.6-16.9-11.3-25.3-16.9c0,2.4,0,4.8,0,7.3c0,3.3,0,6.5,0,9.8c0,2,0,4,0,6
		c7.8,0,15.7-0.1,23.5-0.1c3,0,6.1,0,9.1,0c0.6,0,1.1,0,1.7,0C100.5,233,100,232.7,99.5,232.3z"/>
	<g id="XMLID_25_">
		<path d="M-12.3,170.5c-0.2,0-0.4,0-0.5,0 M-12.3,170.5c-0.2,0-0.4,0-0.5,0 M-12.3,170.5c-0.2,0-0.4,0-0.5,0 M-12.3,170.5
			c-0.2,0-0.4,0-0.5,0 M-12.3,170.5c-0.2,0-0.4,0-0.5,0 M-12.3,170.5c-0.2,0-0.4,0-0.5,0 M-12.3,170.5c-0.2,0-0.4,0-0.5,0
			 M-45.7,190.6 M-12.3,170.5c-0.2,0-0.4,0-0.5,0 M-45.7,190.6 M-12.3,170.5c-0.2,0-0.4,0-0.5,0 M-88,233.9c0-2,0-4,0-6
			c-2.5,0-5.1,0-7.6,0c2.5-1.8,5.1-3.5,7.6-5.2c0-2.4,0-4.9,0-7.3c0-2.4,0-4.8,0-7.3c-10,6.9-20,13.8-30,20.6
			c-0.1,0.1-0.2,0.2-0.3,0.3c0,0,0,0,0,0c-0.1,0.1-0.2,0.2-0.3,0.2c-0.3,0.2-0.6,0.5-0.8,0.9c-0.1,0.1-0.1,0.2-0.2,0.3c0,0,0,0,0,0
			c-0.1,0.1-0.1,0.2-0.2,0.3c0,0,0,0.1-0.1,0.1c-0.4,0.8-0.7,1.6-0.7,2.5c0,0,0,0.1,0,0.1c0,0.1,0,0.2,0,0.3
			c-0.1,1.9,0.7,3.9,2.3,5.1c1.3,1.2,3.1,1.7,5,1.1c8.5,0,17.1,0,25.6-0.1C-88,237.9-88,235.9-88,233.9z M104.1,228.1
			c-12.4-8.3-24.8-16.6-37.3-25c0,2.4,0,4.8,0,7.3s0,4.8,0,7.3c4.8,3.3,9.7,6.5,14.5,9.7c-4.8,0-9.7,0-14.6,0c0,2,0,4,0,6l0,6
			c11.5,0,23-0.1,34.4-0.1C107.3,239.3,108.9,231.3,104.1,228.1z M-12.3,170.5c-0.2,0-0.4,0-0.5,0 M-45.7,190.6L-45.7,190.6z
			 M-12.3,170.5L-12.3,170.5z"/>
	</g>
</g>
<path d="M47.7,124H-68.8c-8.3,0-15.1,8.2-15.1,18.3c0.1,36.3,0.2,72.8,0.4,109.1c7.9,6.6,16.7,13.4,26.2,20.1
	c17.8,12.5,34.8,22.4,50.5,30.2c14-7.9,28.6-17.1,43.6-27.7c9-6.3,17.5-12.7,25.5-18.9c0.2-37.7,0.3-75.2,0.5-112.9
	C62.8,132.2,56,124,47.7,124z M16,235.2c-8.3,0-14.2-4.2-15.1-13.5H0.6c-5.4,9-13.3,13.5-22.6,13.5c-11.4,0-19.6-8.4-19.6-22.8
	c0-21.4,15.8-40.9,41-40.9c7.7,0,16.5,1.9,20.9,4.4L15,208.4c-1.8,10.4-0.5,15.1,4.4,15.3c7.5,0.2,17-9.5,17-29.6
	c0-22.8-14.7-40.5-41.9-40.5c-26.8,0-50.3,21-50.3,54.6c0,29.3,18.8,46,44.9,46c8.9,0,18.4-1.9,25.4-5.6l3.2,10.2
	c-10.5,4.7-19.7,6.3-32.1,6.3c-29.1,0-54.7-20.9-54.7-55.3c0-35.8,26-66.8,65.6-66.8c30.9,0,53,21.2,53,50.7
	C49.4,219.1,35,235.2,16,235.2z M-24.1,210.3c0,6.7,3,10.9,8.8,10.9c6.5,0,13.3-8.2,14.9-18.4L2,186.1c-1.4-0.3-3.2-0.7-5.4-0.7
	C-15,185.4-24.1,196.8-24.1,210.3z"/>
</svg>
