<?xml version="1.0" encoding="utf-8"?>
<!-- Generator: Adobe Illustrator 19.0.0, SVG Export Plug-In . SVG Version: 6.00 Build 0)  -->
<svg version="1.1" id="Camada_1" xmlns="http://www.w3.org/2000/svg" xmlns:xlink="http://www.w3.org/1999/xlink" x="0px" y="0px"
	 viewBox="0 0 604 595.2" style="enable-background:new 0 0 604 595.2;" xml:space="preserve">
<style type="text/css">
	.st0{fill:#F7931E;}
	.st1{fill:none;}
	.st2{fill:#FFE48D;}
</style>
<g id="Pesquisar">
	<path id="XMLID_5_" class="st0" d="M161.7,147.7c104,0.2,208,0.4,312,0.7c10.9,4.1,18.2,14.3,18.3,25.7c0.2,10.4-5.7,20-15,25
		c-42.7,41-85.3,82-128,123c-3.3,57-6.7,114-10,171c-14.3,6.7-28.7,13.3-43,20c-4-64.7-8-129.3-12-194c-43.3-40.7-86.7-81.3-130-122
		c-4.3-4.1-12.7-13-12-24C142.8,160.2,155.6,151.4,161.7,147.7z"/>
	<rect id="XMLID_3_" x="74" y="76" class="st1" width="450.3" height="447"/>
	<path id="XMLID_1_" class="st2" d="M170.7,153.7c104,0.2,208,0.4,312,0.7c10.9,4.1,18.2,14.3,18.3,25.7c0.2,10.4-5.7,20-15,25
		c-42.7,41-85.3,82-128,123c-3.3,57-6.7,114-10,171c-14.3,6.7-28.7,13.3-43,20c-4-64.7-8-129.3-12-194c-43.3-40.7-86.7-81.3-130-122
		c-4.3-4.1-12.7-13-12-24C151.8,166.2,164.6,157.4,170.7,153.7z"/>
</g>
</svg>
