<?xml version="1.0" encoding="iso-8859-1"?>
<!-- Generator: Adobe Illustrator 19.0.0, SVG Export Plug-In . SVG Version: 6.00 Build 0)  -->
<svg version="1.1" id="Capa_1" xmlns="http://www.w3.org/2000/svg" xmlns:xlink="http://www.w3.org/1999/xlink" x="0px" y="0px"
	 viewBox="0 0 57 57" style="enable-background:new 0 0 57 57;" xml:space="preserve">
<g>
	<g>
		<path d="M43.994,0H35H13.005C10.246,0,8,2.243,8,5v51c0,0.553,0.448,1,1,1h26h13c0.552,0,1-0.447,1-1V5
			C49,2.243,46.754,0,43.994,0z M10,5c0-1.654,1.348-3,3.005-3H34v53H10V5z M47,55H36V2h7.994C45.651,2,47,3.346,47,5V55z"/>
		<path d="M27,19H15c-0.552,0-1,0.447-1,1v13c0,0.553,0.448,1,1,1h12c0.552,0,1-0.447,1-1V20C28,19.447,27.552,19,27,19z M16,21h4v3
			h2v-3h4v7H16V21z M16,32v-2h10v2H16z"/>
		<rect x="29" y="15" width="2" height="26.083"/>
		<rect x="39" y="15" width="2" height="26.083"/>
	</g>
</g>
<g>
</g>
<g>
</g>
<g>
</g>
<g>
</g>
<g>
</g>
<g>
</g>
<g>
</g>
<g>
</g>
<g>
</g>
<g>
</g>
<g>
</g>
<g>
</g>
<g>
</g>
<g>
</g>
<g>
</g>
</svg>
