<?xml version="1.0" encoding="utf-8"?>
<!-- Generator: Adobe Illustrator 19.0.0, SVG Export Plug-In . SVG Version: 6.00 Build 0)  -->
<svg version="1.1" id="Camada_1" xmlns="http://www.w3.org/2000/svg" xmlns:xlink="http://www.w3.org/1999/xlink" x="0px" y="0px"
	 viewBox="-177 183.8 604 595.2" style="enable-background:new -177 183.8 604 595.2;" xml:space="preserve">
<style type="text/css">
	.st0{fill:#FFE48D;}
	.st1{fill:#F7931E;}
</style>
<symbol  id="Pesquisar_1_" viewBox="-17.9 -17.4 35.9 34.8">
	<g id="XMLID_3_">
		<g id="XMLID_4_">
			<g id="XMLID_5_">
				<path id="XMLID_6_" class="st0" d="M-17.6-13.2c-0.4,0.5-0.4,1.2,0.1,1.6l9.6,8.7C-7.5-2.5-6.8-2.5-6.3-3l3.4-3.8
					C-2.5-7.3-2.5-8-3-8.4l-9.6-8.7c-0.5-0.4-1.2-0.4-1.6,0.1L-17.6-13.2z"/>
			</g>
		</g>
	</g>
	<g id="XMLID_1_">
		<path id="XMLID_2_" class="st0" d="M5.4,17.4c1.4,0,2.7-0.2,4.1-0.7c6.6-2.3,10-9.4,7.8-16c-1.8-5.2-6.7-8.5-11.9-8.5
			C4-7.8,2.7-7.6,1.3-7.1C-5.3-4.8-8.8,2.4-6.5,9C-4.7,14.2,0.2,17.4,5.4,17.4 M5.4,14C1.5,14-2,11.5-3.3,7.8C-4.1,5.5-4,3-2.9,0.8
			s3-3.8,5.3-4.6c1-0.3,2-0.5,3-0.5c3.9,0,7.4,2.5,8.7,6.2c0.8,2.3,0.7,4.8-0.4,7s-2.9,3.9-5.2,4.7l0,0C7.4,13.8,6.4,14,5.4,14
			L5.4,14z"/>
	</g>
</symbol>
<g id="Pesquisar">
	<g id="XMLID_34_">
		<g id="XMLID_35_">
			<g id="XMLID_37_">
				<path id="XMLID_38_" class="st1" d="M345.9,669.6c5.1-5.7,4.7-14.5-1-19.6L227.6,543.4c-5.7-5.1-14.5-4.7-19.6,1l-41.8,46.3
					c-5.1,5.7-4.7,14.5,1,19.6l117.3,106.6c5.7,5.1,14.5,4.7,19.6-1L345.9,669.6z"/>
			</g>
		</g>
	</g>
	<g id="XMLID_18_">
		<path id="XMLID_19_" class="st1" d="M64.6,295.1c63.7,0,123.2,39.9,145.2,103.4c27.7,80.2-14.8,167.7-94.9,195.4
			c-16.6,5.8-33.6,8.5-50.2,8.5C1,602.4-58.5,562.5-80.5,499c-27.7-80.2,14.8-167.7,94.9-195.4C31,297.8,48,295.1,64.6,295.1
			 M64.6,336.7c-12.4,0-24.7,2.1-36.6,6.2l0,0c-28.3,9.8-51,30-64.1,56.9s-14.9,57.3-5.1,85.5c15.6,45.1,58.1,75.4,105.8,75.4
			c12.4,0,24.7-2.1,36.6-6.2c28.3-9.8,51-30,64.1-56.9c13.1-26.9,14.9-57.3,5.1-85.5C154.9,367,112.3,336.7,64.6,336.7L64.6,336.7z"
			/>
	</g>
</g>
<use xlink:href="#Pesquisar_1_"  width="35.9" height="34.8" id="XMLID_7_" x="-17.9" y="-17.4" transform="matrix(-12.2302 0 0 -12.2302 140.279 513.7366)" style="overflow:visible;"/>
</svg>
