<?xml version="1.0" encoding="utf-8"?>
<!-- Generator: Adobe Illustrator 19.0.0, SVG Export Plug-In . SVG Version: 6.00 Build 0)  -->
<svg version="1.1" id="Camada_1" xmlns="http://www.w3.org/2000/svg" xmlns:xlink="http://www.w3.org/1999/xlink" x="0px" y="0px"
	 viewBox="0 0 960 960" style="enable-background:new 0 0 960 960;" xml:space="preserve">
<style type="text/css">
	.st0{fill:#F7931E;}
	.st1{fill:#FFE48D;}
</style>
<g id="XMLID_2_">
	<path id="XMLID_7_" class="st0" d="M810.1,336H181.9c-18,0-32.7-14.7-32.7-32.7v-79.5c0-18,14.7-32.7,32.7-32.7h628.2
		c18,0,32.7,14.7,32.7,32.7v79.5C842.8,321.3,828.1,336,810.1,336z"/>
	<path id="XMLID_6_" class="st0" d="M810.1,573.2H181.9c-18,0-32.7-14.7-32.7-32.7V461c0-18,14.7-32.7,32.7-32.7h628.2
		c18,0,32.7,14.7,32.7,32.7v79.5C842.8,558.4,828.1,573.2,810.1,573.2z"/>
	<path id="XMLID_5_" class="st0" d="M810.1,812.9H181.9c-18,0-32.7-14.7-32.7-32.7v-79.5c0-18,14.7-32.7,32.7-32.7h628.2
		c18,0,32.7,14.7,32.7,32.7v79.5C842.8,798.2,828.1,812.9,810.1,812.9z"/>
</g>
<g id="XMLID_1_">
	<path id="XMLID_3_" class="st1" d="M794.1,314H165.9c-18,0-32.7-14.7-32.7-32.7v-79.5c0-18,14.7-32.7,32.7-32.7h628.2
		c18,0,32.7,14.7,32.7,32.7v79.5C826.8,299.3,812.1,314,794.1,314z"/>
	<path id="XMLID_4_" class="st1" d="M794.1,551.2H165.9c-18,0-32.7-14.7-32.7-32.7V439c0-18,14.7-32.7,32.7-32.7h628.2
		c18,0,32.7,14.7,32.7,32.7v79.5C826.8,536.4,812.1,551.2,794.1,551.2z"/>
	<path id="XMLID_8_" class="st1" d="M794.1,790.9H165.9c-18,0-32.7-14.7-32.7-32.7v-79.5c0-18,14.7-32.7,32.7-32.7h628.2
		c18,0,32.7,14.7,32.7,32.7v79.5C826.8,776.2,812.1,790.9,794.1,790.9z"/>
</g>
</svg>
