<?xml version="1.0" encoding="utf-8"?>
<!-- Generator: Adobe Illustrator 19.0.0, SVG Export Plug-In . SVG Version: 6.00 Build 0)  -->
<svg version="1.1" id="Camada_1" xmlns="http://www.w3.org/2000/svg" xmlns:xlink="http://www.w3.org/1999/xlink" x="0px" y="0px"
	 viewBox="0 0 960 960" style="enable-background:new 0 0 960 960;" xml:space="preserve">
<style type="text/css">
	.st0{fill:#F7931E;}
	.st1{fill:#FFE48D;}
</style>
<g id="XMLID_2_">
	<path id="XMLID_7_" class="st0" d="M810.1,336H181.9c-18,0-32.7-14.7-32.7-32.7v-79.5c0-18,14.7-32.7,32.7-32.7h628.2
		c18,0,32.7,14.7,32.7,32.7v79.5C842.8,321.3,828.1,336,810.1,336z"/>
	<path id="XMLID_6_" class="st0" d="M810.1,573.2H181.9c-18,0-32.7-14.7-32.7-32.7V461c0-18,14.7-32.7,32.7-32.7h628.2
		c18,0,32.7,14.7,32.7,32.7v79.5C842.8,558.4,828.1,573.2,810.1,573.2z"/>
	<path id="XMLID_5_" class="st0" d="M810.1,812.9H181.9c-18,0-32.7-14.7-32.7-32.7v-79.5c0-18,14.7-32.7,32.7-32.7h628.2
		c18,0,32.7,14.7,32.7,32.7v79.5C842.8,798.2,828.1,812.9,810.1,812.9z"/>
</g>
<g id="XMLID_1_">
	<path id="XMLID_3_" class="st1" d="M822.1,343.7H193.9c-18,0-32.7-14.7-32.7-32.7v-79.5c0-18,14.7-32.7,32.7-32.7h628.2
		c18,0,32.7,14.7,32.7,32.7V311C854.8,329,840.1,343.7,822.1,343.7z"/>
	<path id="XMLID_4_" class="st1" d="M822.1,580.9H193.9c-18,0-32.7-14.7-32.7-32.7v-79.5c0-18,14.7-32.7,32.7-32.7h628.2
		c18,0,32.7,14.7,32.7,32.7v79.5C854.8,566.2,840.1,580.9,822.1,580.9z"/>
	<path id="XMLID_8_" class="st1" d="M822.1,820.6H193.9c-18,0-32.7-14.7-32.7-32.7v-79.5c0-18,14.7-32.7,32.7-32.7h628.2
		c18,0,32.7,14.7,32.7,32.7v79.5C854.8,805.9,840.1,820.6,822.1,820.6z"/>
</g>
</svg>
