<?xml version="1.0" encoding="utf-8"?>
<!-- Generator: Adobe Illustrator 19.0.0, SVG Export Plug-In . SVG Version: 6.00 Build 0)  -->
<svg version="1.1" id="Capa_1" xmlns="http://www.w3.org/2000/svg" xmlns:xlink="http://www.w3.org/1999/xlink" x="0px" y="0px"
	 viewBox="-451 452 64.7 64.7" style="enable-background:new -451 452 64.7 64.7;" xml:space="preserve">
<g>
	<g>
		<path d="M-412.4,451.5h-9.5h-23.3c-2.9,0-5.3,2.4-5.3,5.3v54c0,0.6,0.5,1.1,1.1,1.1h27.5h13.8c0.6,0,1.1-0.5,1.1-1.1v-54
			C-407.1,453.9-409.5,451.5-412.4,451.5z M-448.4,456.8c0-1.8,1.4-3.2,3.2-3.2h22.2v56.1h-25.4V456.8z M-409.2,509.7h-11.6v-56.1
			h8.5c1.8,0,3.2,1.4,3.2,3.2V509.7z"/>
		<path d="M-430.4,471.6h-12.7c-0.6,0-1.1,0.5-1.1,1.1v13.8c0,0.6,0.5,1.1,1.1,1.1h12.7c0.6,0,1.1-0.5,1.1-1.1v-13.8
			C-429.3,472.1-429.8,471.6-430.4,471.6z M-442,473.7h4.2v3.2h2.1v-3.2h4.2v7.4H-442V473.7z M-442,485.4v-2.1h10.6v2.1H-442z"/>
		<rect x="-428.3" y="467.4" width="2.1" height="27.6"/>
		<rect x="-417.7" y="467.4" width="2.1" height="27.6"/>
	</g>
</g>
<path d="M-387.2,512.3l-5.9-5.9c-0.3-0.3-0.6-0.4-1-0.4h-1c1.6-2.1,2.6-4.7,2.6-7.6c0-6.8-5.5-12.3-12.3-12.3
	c-6.8,0-12.3,5.5-12.3,12.3s5.5,12.3,12.3,12.3c2.9,0,5.5-1,7.6-2.6v1c0,0.4,0.1,0.7,0.4,1l5.9,5.9c0.6,0.6,1.5,0.6,2,0l1.7-1.7
	C-386.7,513.7-386.7,512.8-387.2,512.3z M-404.8,507.8c-5.2,0-9.4-4.2-9.4-9.4c0-5.2,4.2-9.4,9.4-9.4c5.2,0,9.4,4.2,9.4,9.4
	C-395.4,503.6-399.6,507.8-404.8,507.8z"/>
</svg>
