<?xml version="1.0" encoding="utf-8"?>
<!-- Generator: Adobe Illustrator 19.0.0, SVG Export Plug-In . SVG Version: 6.00 Build 0)  -->
<svg version="1.1" id="Camada_1" xmlns="http://www.w3.org/2000/svg" xmlns:xlink="http://www.w3.org/1999/xlink" x="0px" y="0px"
	 viewBox="0 0 1446 704.8" style="enable-background:new 0 0 1446 704.8;" xml:space="preserve">
<style type="text/css">
	.st0{opacity:0.75;}
	.st1{fill:#E6E6E6;stroke:#CCCCCC;stroke-width:5;stroke-miterlimit:10;}
</style>
<g id="XMLID_1_" class="st0">
	<path id="XMLID_3_" class="st1" d="M311,92.7c16.6,30.4,19.6,59.1,21.3,75.2c1.7,16.7,4,39.9-3.4,68.4c-8.3,32.1-24.7,54.9-36,68
		c6.4,6.9,12.7,13.8,19.1,20.7c-14.3,13.3-28.6,26.5-42.8,39.8c-5.9-8.4-11.7-16.8-17.6-25.2c-14.1,8.3-36.6,19.1-66.1,22.9
		c-14.5,1.9-42.4,5.2-74.5-7.1c-22.2-8.5-36.3-20.6-43.6-27c-34.1-29.7-46.7-65.9-52.2-82.1c-5.7-16.9-20.9-64.6-3.8-121.6
		c5.6-18.7,19.9-66.6,67.2-97c65.7-42.2,138.6-14.6,147-11.2C278.7,37.5,304.1,80.1,311,92.7z M89.5,238.6
		c9.8,14.5,27.6,40.8,60.4,46.7c24.3,4.3,44.4-4.8,52.8-9.2c-7.6-11.7-15.3-23.5-22.9-35.2c7.4-6.1,14.8-12.2,22.2-18.4
		c11,10.2,21.9,20.4,32.9,30.6c7.5-10.3,25.2-37.9,25.2-76.5c0-12.7-0.3-43.4-22.2-71.9c-5.6-7.3-23.1-29.4-55.1-37.5
		c-6.1-1.5-44.7-10.6-78,13.8c-34.6,25.3-36.8,67.1-37.5,81.1C65.3,201.9,83.8,230.2,89.5,238.6z"/>
	<path id="XMLID_6_" class="st1" d="M446.3,343l-0.5,0.1c-2.2,10.6-6.9,18.5-14.1,23.8c-7.2,5.3-16,8.7-26.4,10.2
		c-13.7,1.9-25.4-0.5-35.1-7.5c-9.7-6.9-15.6-18.2-17.8-33.7L336,220.7l60.5-13.6l12.8,101.7c0.4,4.4,1.8,7.4,4.2,9.1
		c2.4,1.6,5.8,2.1,10.1,1.5c3.7-0.5,6.5-1.9,8.5-4c2-2.2,2.6-5.4,1.8-9.8L418.6,209l62.4-13.9L500,358.9l-50.2,9.4L446.3,343z"/>
	<path id="XMLID_8_" class="st1" d="M592.9,338.9l-0.5-0.1c-6.1,6-13.2,9.8-21.2,11.2c-8,1.4-16.4,1.3-25.1-0.2
		c-7.3-1.3-14-3.8-20-7.6c-6.1-3.8-11.1-8.6-15.2-14.4c-4-5.8-6.9-12.4-8.6-19.8c-1.7-7.4-1.8-15.4-0.3-24c1.3-7.5,4-14.1,8-19.8
		c4-5.8,8.9-10.5,14.8-14.3c5.8-3.8,12.4-6.3,19.7-7.8c7.3-1.4,14.9-1.4,22.9,0c8.4,1.5,15.2,3.9,20.5,7.4
		c5.3,3.5,9.7,7.1,13.1,10.9l1.4-8.2c1.5-8.4-0.3-14.4-5.2-18.1c-5-3.7-11.8-6.3-20.6-7.8c-8-1.4-15.6-1.9-22.8-1.5
		c-7.2,0.4-14.5,1.1-22,2l18.3-41.5c9.2-1,18.6-1.2,28.2-0.5c9.6,0.7,19.4,1.9,29.2,3.6c8.9,1.6,17.5,4.2,25.6,7.8
		c8.2,3.6,15.1,8.3,20.7,14.2c5.6,5.9,9.7,12.9,12.2,21c2.5,8.1,2.7,17.6,0.6,28.5l-21.2,102.6l-55.7-5L592.9,338.9z M567.1,282.3
		c-6.3-0.2-11.8,1.1-16.4,3.7c-4.6,2.7-7,6.1-7.2,10.4c0,4.3,2,7.9,6.1,10.8c4.1,2.9,9.8,4.4,17.1,4.6c7.3,0.2,13-1.2,17-4
		c4.1-2.8,6.1-6.3,6.1-10.5c0.1-3.5-1.7-6.9-5.4-10.1C580.7,284,575,282.4,567.1,282.3z"/>
	<path id="XMLID_11_" class="st1" d="M661.9,99.8l61.8-12l23.5,276.4l-57.3,11.6L661.9,99.8z"/>
	<path id="XMLID_13_" class="st1" d="M941,19.8c19,2.1,38,4.2,57,6.3c29.9,123.8,59.9,247.6,89.8,371.5
		c-31.3-3.6-62.6-7.1-93.9-10.7c-3.3-20-6.6-40-10-60.1c-31.3-2.9-62.5-5.9-93.8-8.8c-7.3,18.5-14.6,36.9-21.9,55.4
		c-31.7-3.7-63.3-7.5-95-11.2C829.2,248.1,885.1,134,941,19.8z M913.6,228.9c22.5,2.7,45.1,5.5,67.6,8.2
		c-2.3-37.5-4.6-74.9-6.8-112.4c-8.1-1.1-16.2-2.2-24.3-3.2C938,157.3,925.8,193.1,913.6,228.9z"/>
	<path id="XMLID_16_" class="st1" d="M283.6,669.1c-20.5,7.2-41,14.5-61.5,21.7c-28.1-41.8-56.3-83.6-84.4-125.4
		c0.6,44,1.2,88,1.8,132c-22.9-1.2-45.8-2.4-68.7-3.6c-1.2-103.7-2.4-207.3-3.6-311c27.4-3.2,77.4-8.6,134.4-12.7
		c9.7-0.7,27.3-1.8,48.2,4.8c11.4,3.6,29.8,9.7,44.6,27.7c4.4,5.4,18.6,24.1,18.1,50.6c-0.3,18.4-7.5,31.5-12.1,39.8
		c-2.4,4.3-10.9,19.3-27.7,32.5c-27.3,21.6-57.9,23.9-69.9,24.1C229.7,589.6,256.7,629.3,283.6,669.1z M134,429.1
		c0.4,23.1,0.8,46.2,1.2,69.3c11.7,0.5,27.4,0.6,45.8-1.2c36.5-3.5,44.8-9.1,48.2-12.1c10.6-9,20.3-26,15-40.1
		c-3.3-8.9-11.2-13.3-17-16.5c-4-2.2-15.8-8.2-47.5-6.5C168.3,422.7,152.5,424.4,134,429.1z"/>
	<path id="XMLID_19_" class="st1" d="M429,646c-10.4,9.2-21.4,16.1-32.8,20.8c-11.4,4.7-24.8,7.8-40,9.2c-12.5,1.2-24.2,0.1-35-3.2
		c-10.8-3.3-20.3-8.3-28.6-14.9c-8.2-6.6-14.9-14.7-20.1-24.1c-5.2-9.4-8.3-19.7-9.3-30.7c-1.3-13.8-0.3-26.3,3.1-37.6
		c3.4-11.3,8.5-21,15.3-29.3c6.8-8.3,15-14.8,24.7-19.7c9.6-4.9,20.2-7.9,31.6-9c18.4-1.8,34.8,1.4,49.2,9.5
		c14.4,8.1,25.7,19.6,33.8,34.6l-76.5,69.9c2.1,0.9,4.9,1.4,8.2,1.4c3.3,0.1,6.4-0.1,9.2-0.3c8.5-0.8,15.4-3,20.9-6.6
		c5.5-3.6,10.4-7.7,14.8-12.4L429,646z M361.4,561.1c-2.9-2.9-5.9-4.7-9-5.5c-3.1-0.8-6.6-1-10.5-0.7c-3.7,0.4-7,1.5-9.8,3.3
		c-2.9,1.9-5.3,4.2-7.3,7.1c-2,2.9-3.4,6-4.2,9.4c-0.9,3.4-1.2,6.9-0.8,10.4c0.3,3.3,0.8,5.6,1.4,7c0.6,1.3,1.3,2.7,2.2,4.1
		L361.4,561.1z"/>
	<path id="XMLID_22_" class="st1" d="M542.4,667.8c-5.7,1.5-11.4,2.5-17.2,3s-11.5,0.4-17.2-0.2c-5.7-0.6-11.2-1.4-16.5-2.5
		c-12.3-2.6-23.2-7.1-32.7-13.5c-9.5-6.4-17.3-14.1-23.4-23c-6.1-9-10.3-18.8-12.5-29.6c-2.2-10.8-2.1-21.8,0.3-33.2
		c2.8-13.2,7.6-24.6,14.4-34.2c6.8-9.6,15-17.2,24.6-22.8c9.6-5.6,20.3-9.1,32.2-10.7c11.8-1.5,24.2-0.9,37,1.9
		c12.8,2.8,23.5,7.2,32.1,13.4c8.6,6.2,15.7,12.2,21.2,17.9L539,573.4c-2.1-2.5-4.7-4.8-7.8-6.8c-3.1-2-6.3-3.6-9.6-4.9
		c-3.3-1.3-6.6-2.2-9.8-2.7c-3.2-0.5-5.9-0.4-8.1,0.2c-3.8,1.1-7.2,2.6-10.2,4.5c-3,1.9-5.4,4.2-7.4,6.8c-2,2.6-3.3,5.6-3.9,8.9
		c-0.6,3.4-0.4,7,0.7,10.8c2.1,8,6.3,13.5,12.6,16.6c6.3,3.1,13.6,3.6,21.8,1.6l15.3-4.1L559,661C553.7,664,548.1,666.3,542.4,667.8
		z"/>
	<path id="XMLID_24_" class="st1" d="M686.3,698.1c-13.6,2.7-26.6,3.3-38.8,1.7c-12.3-1.6-25.4-5.6-39.3-11.9
		c-11.4-5.2-21-11.9-28.7-20.2c-7.7-8.3-13.5-17.3-17.3-27.2c-3.8-9.9-5.6-20.2-5.4-30.9c0.2-10.8,2.6-21.2,7.2-31.3
		c5.7-12.6,12.9-23,21.4-31c8.5-8.1,17.8-14,27.9-17.8c10-3.8,20.4-5.4,31.3-4.8c10.8,0.6,21.4,3.2,31.8,7.9
		c16.8,7.6,29.4,18.6,37.9,32.8c8.5,14.2,12.5,29.8,12,46.9l-101.2,22.4c1.4,1.8,3.5,3.6,6.4,5.3c2.9,1.7,5.6,3.1,8.1,4.3
		c7.7,3.5,14.9,5.1,21.4,4.7c6.6-0.4,12.9-1.5,19-3.4L686.3,698.1z M670,590.9c-1.1-3.9-2.7-7-5.1-9.3s-5.2-4.2-8.8-5.8
		c-3.4-1.5-6.8-2.2-10.2-2c-3.4,0.2-6.7,1-9.8,2.5c-3.1,1.5-5.9,3.5-8.4,6.1c-2.5,2.5-4.4,5.4-5.9,8.6c-1.4,3-2.1,5.3-2.3,6.7
		c-0.2,1.5-0.2,3-0.1,4.7L670,590.9z"/>
	<path id="XMLID_27_" class="st1" d="M755.6,465.2l63.2,6.2l-10.2,47.8l-60.4-4.1L755.6,465.2z M745.9,534.6l61.9,3.8l-25.6,157.8
		l-58.8-3.4L745.9,534.6z"/>
	<path id="XMLID_30_" class="st1" d="M924.3,696.4c-2.6,0.7-5.4,1.3-8.5,2c-17.3,3.8-31.7,2.8-43-2.9c-11.4-5.7-19-17.4-22.9-35.1
		l-14-64.1l-14.8,3.5l-8.6-47.2l12.7-2.8l-3.9-17.9l52.9-39.4l9.7,44.4l21.2-8l7.9,50.4l-18.4,4l10.4,47.4c1.2,5.4,2.7,8.9,4.7,10.3
		c1.9,1.5,5.6,1.6,11,0.4c2.3-0.5,4.2-1,5.6-1.5c1.4-0.5,2.7-1.1,3.9-1.7l2.2,55.7C929.6,694.9,926.9,695.8,924.3,696.4z"/>
	<path id="XMLID_32_" class="st1" d="M1023.9,668.2l-0.5-0.1c-6.7,5.4-14.1,8.5-22.2,9.1c-8.1,0.6-16.5-0.3-25-2.6
		c-7.1-2-13.5-5.1-19.2-9.5c-5.7-4.4-10.3-9.6-13.7-15.7c-3.5-6.1-5.7-13-6.7-20.5c-1-7.6-0.3-15.5,2-23.9c2-7.3,5.3-13.6,9.9-19
		c4.5-5.4,9.9-9.6,16.1-12.8c6.2-3.2,12.9-5.1,20.3-5.9c7.4-0.7,15,0,22.8,2.2c8.2,2.3,14.7,5.4,19.7,9.3c4.9,4,8.9,8,12,12.1l2.2-8
		c2.3-8.2,1.1-14.4-3.5-18.5c-4.6-4.2-11.2-7.4-19.7-9.8c-7.8-2.2-15.3-3.4-22.6-3.7c-7.2-0.3-14.6-0.3-22.1-0.1l22.2-39.6
		c9.2-0.1,18.6,0.6,28.1,2.2c9.5,1.6,19.1,3.7,28.7,6.4c8.7,2.4,17,5.8,24.8,10.2c7.8,4.4,14.2,9.7,19.2,16.1
		c5,6.4,8.4,13.7,10.1,22.1c1.7,8.3,1,17.8-2.1,28.4l-30.9,100.1l-54.9-10.3L1023.9,668.2z M1003.7,609.4
		c-6.3-0.8-11.9-0.1-16.7,2.1c-4.8,2.2-7.5,5.4-8.1,9.7c-0.4,4.3,1.3,8.1,5.1,11.3c3.8,3.3,9.3,5.3,16.5,6.2
		c7.2,0.9,13,0.1,17.3-2.4c4.3-2.4,6.7-5.7,7-9.8c0.4-3.5-1.1-7.1-4.4-10.6C1017.1,612.4,1011.5,610.3,1003.7,609.4z"/>
	<path id="XMLID_35_" class="st1" d="M1063.7,192.2c3.2-18.2,18.9-95.1,89.4-145.3c14.9-10.6,61.4-42.7,126.1-39.1
		c15.2,0.8,61.3,4,102.7,38.3c7.1,5.9,28.3,24.5,43.6,56.4c5.9,12.4,22.5,48.2,15.4,94.7c-6.5,42.4-28.9,69.8-37.8,80.3
		c-26.9,31.9-60.3,47.8-85.1,59.6c-34.4,16.3-47.3,15.1-68.1,34.1c-10.6,9.6-29.5,26.8-31.9,54.3c-2.5,28.1,13.9,49.2,18.6,54.8
		c-30.5,10.4-61,20.8-91.6,31.2c-6.4-10.2-14.7-25.6-20.1-45.7c-3.5-13.1-12.1-44.5-2.1-78.3c8.8-29.5,27.7-47.1,45.1-63
		c47.8-43.5,73.1-31.7,118.5-72.9c19.6-17.8,49.1-44.4,45.7-79c-3.1-31.9-31.3-50-33.3-51.3c-30-18.7-62.3-7.2-70.7-4.2
		c-28.2,10.1-43,31.5-54.8,48.5c-15.6,22.6-22.4,44.3-25.6,58.2C1119.8,213.3,1091.7,202.7,1063.7,192.2z M1263.1,690.1
		c-4,2.3-41.5,23.1-78.6,4.1c-26.7-13.6-35.8-38.9-37-42.3c-1.2-3.4-9.6-29.2,3.4-56.7c18.3-38.5,61.9-44.4,64.7-44.7
		c35.9-4.2,82.1,15.2,91.5,55.1C1315.7,642.2,1288.5,675.5,1263.1,690.1z"/>
</g>
</svg>
